<?xml version="1.0" encoding="utf-8"?>
<!-- Generator: Adobe Illustrator 21.1.0, SVG Export Plug-In . SVG Version: 6.00 Build 0)  -->
<svg version="1.2" baseProfile="tiny" id="Layer_2" xmlns="http://www.w3.org/2000/svg" xmlns:xlink="http://www.w3.org/1999/xlink"
	 x="0px" y="0px" viewBox="0 0 2732 2048" xml:space="preserve">
<g transform="matrix(0.124531, 0, 0, 0.124531, -36.244717, -1.120784)">
	<g id="g236">
		<path id="path238" fill="none" d="M1873.1,447.1c0,0-36-44.4-56.8-70.3c-6.9-8.6-12.1-15.1-13.9-17.5c-2.5-3.3-4.3-5.7-5.5-6.9
			c-1.2-1.2-1.4-1.3-2.4-1.6c-0.6-0.2-1.8-0.4-3.8-0.4h-85c-2.8,0-5.5-1.1-7.4-3.1c-2-2-3.1-4.7-3.1-7.4v-12.5h-74
			c-2.8,0-5.5-1.1-7.4-3.1c-2-2-3.1-4.7-3.1-7.4v-57c0-2.8,1.1-5.5,3.1-7.4c2-2,4.7-3.1,7.4-3.1l75,0v-2h-77c-2.8,0-5.5-1.1-7.4-3.1
			c-2-2-3.1-4.7-3.1-7.4v-54c0-2.8,1.1-5.5,3.1-7.4c2-2,4.7-3.1,7.4-3.1l75,0v-2h-90V340c0,2.8-1.1,5.5-3.1,7.4
			c-2,2-4.7,3.1-7.4,3.1h-64.5c-2.8,0-5.5-1.1-7.4-3.1c-2-2-3.1-4.7-3.1-7.4V150.5h-4.5V340c0,2.8-1.1,5.5-3.1,7.4
			c-2,2-4.7,3.1-7.4,3.1h-157.5c-2.8,0-5.5-1.1-7.4-3.1c-2-2-3.1-4.7-3.1-7.4V204.5c0-2.8,1.1-5.5,3.1-7.4c2-2,4.7-3.1,7.4-3.1h82
			V94.5h-101.5V341c0,2.8-1.1,5.5-3.1,7.4c-2,2-4.7,3.1-7.4,3.1h-122.5c-2.8,0-5.5-1.1-7.4-3.1c-2-2-3.1-4.7-3.1-7.4v-36
			c0-2.8,1.1-5.5,3.1-7.4c2-2,4.7-3.1,7.4-3.1l47.5,0V169h-124v125.5h45.5c2.8,0,5.5,1.1,7.4,3.1c2,2,3.1,4.7,3.1,7.4v36
			c0,2.8-1.1,5.5-3.1,7.4c-2,2-4.7,3.1-7.4,3.1h-111.5c-3.1,0-6.7,0-10.7-0.9c-4-0.9-8.4-2.9-12.1-6.1c-0.6-0.6-0.8-0.8-1.2-1.1
			c-0.3-0.3-0.6-0.7-1-1.1c-0.8-0.8-1.7-1.8-2.8-3.1c-2.3-2.5-5.3-5.8-8.8-9.8c-7-7.9-16.1-18.1-25-28.3
			c-17.9-20.3-35.3-40.2-35.3-40.2c-2.7-3.1-3.4-7.5-1.7-11.3c1.7-3.8,5.4-6.2,9.6-6.2h69V170h-88v170c0,2.8-1.1,5.5-3.1,7.4
			c-2,2-4.7,3.1-7.4,3.1h-64c-2.8,0-5.5-1.1-7.4-3.1c-2-2-3.1-4.7-3.1-7.4V108c0-2.8,1.1-5.5,3.1-7.4c2-2,4.7-3.1,7.4-3.1h85.5V93
			H758.8v4.5h84c2.8,0,5.5,1.1,7.4,3.1c2,2,3.1,4.7,3.1,7.4v232c0,2.8-1.1,5.5-3.1,7.4c-2,2-4.7,3.1-7.4,3.1h-64.5
			c-2.8,0-5.5-1.1-7.4-3.1c-2-2-3.1-4.7-3.1-7.4v-13.5h-76c-2.8,0-5.5-1.1-7.4-3.1c-2-2-3.1-4.7-3.1-7.4v-57c0-2.8,1.1-5.5,3.1-7.4
			c2-2,4.7-3.1,7.4-3.1l76,0V246h-76.5c-2.8,0-5.5-1.1-7.4-3.1c-2-2-3.1-4.7-3.1-7.4V182c0-2.8,1.1-5.5,3.1-7.4c2-2,4.7-3.1,7.4-3.1
			h77v-3h-91.5V340c0,2.8-1.1,5.5-3.1,7.4c-2,2-4.7,3.1-7.4,3.1h-67c-1.1,0-2.3,0-3.8-0.2c-1.4-0.2-3.1-0.7-4.4-1.3
			c-2.7-1.2-4-2.3-6.2-3.7c-1.1-0.8-1.6-1.3-2-1.7c-0.4-0.4-0.7-0.7-0.9-1c-0.5-0.6-1-1.2-1.4-1.9c-1-1.3-2-3-3.3-4.9
			c-2.5-4-5.8-9.3-9.7-15.5c-7.6-12.6-17.3-28.9-26.9-45.2c-19.1-32.5-37.6-64.7-37.6-64.7c-1.9-3.3-1.9-7.2,0-10.5
			c1.9-3.2,5.3-5.2,9.1-5.2l81.5,0v-100h-99.6L492.8,340c0,5.7-4.7,10.4-10.4,10.4c0,0-82.4,0.5-86.1,0.5c-6.3,0-11.4-2.1-14.7-4.2
			c-3.2-2-4.9-4-5.5-4.7l0,0l-76.9-92.9v0c-3.7-4.5-3.1-11.1,1.4-14.8c4.5-3.7,11.1-3.1,14.8,1.4l76.7,92.7c0.1,0.1,0.4,0.3,0.7,0.5
			c0.8,0.5,1.7,0.9,3.5,0.9c1.6,0,23.2-0.1,44.2-0.2c11.7-0.1,23.3-0.1,31.3-0.2l1.4-245.6c0-5.8,4.7-10.4,10.5-10.4h120.5
			c2.8,0,5.5,1.1,7.4,3.1c2,2,3.1,4.7,3.1,7.4v121c0,2.8-1.1,5.5-3.1,7.4c-2,2-4.7,3.1-7.4,3.1h-73.8c3.1,5.4,6.9,11.8,11,18.9
			c11.5,19.8,25.9,44.4,37.5,63.8c7.7,12.9,14.3,23.6,17.7,28.6c0.5,0.7,0.9,1.3,1.2,1.7c0.6,0.4,1.1,0.7,1.4,0.9c0,0,0,0,0.1,0
			c2.6,0,38.3,0,56.5,0V158c0-2.8,1.1-5.5,3.1-7.4c2-2,4.7-3.1,7.4-3.1h112.5c2.8,0,5.5,1.1,7.4,3.1c2,2,3.1,4.7,3.1,7.4v24
			c0,2.8-1.1,5.5-3.1,7.4c-2,2-4.7,3.1-7.4,3.1h-77V225h76.5c2.8,0,5.5,1.1,7.4,3.1c2,2,3.1,4.7,3.1,7.4V259c0,2.8-1.1,5.5-3.1,7.4
			c-2,2-4.7,3.1-7.4,3.1l-76,0v36h76c2.8,0,5.5,1.1,7.4,3.1c2,2,3.1,4.7,3.1,7.4v13.5h43.5v-211h-84c-2.8,0-5.5-1.1-7.4-3.1
			c-2-2-3.1-4.7-3.1-7.4V82.4c0-2.8,1.1-5.5,3.1-7.4c2-2,4.7-3.1,7.4-3.1h216.5c2.8,0,5.5,1.1,7.4,3.1c2,2,3.1,4.7,3.1,7.4v25.5
			c0,2.8-1.1,5.5-3.1,7.4c-2,2-4.7,3.1-7.4,3.1h-85.5v211h43v-170c0-2.8,1.1-5.5,3.1-7.4c2-2,4.7-3.1,7.4-3.1h109
			c2.8,0,5.5,1.1,7.4,3.1c2,2,3.1,4.7,3.1,7.4v94.5c0,2.8-1.1,5.5-3.1,7.4c-2,2-4.7,3.1-7.4,3.1h-56.3c4.8,5.4,10.2,11.7,15.9,18.1
			c16.3,18.5,34.1,38.7,39.8,44.8c0.5,0.5,0.9,1,1.1,1.2c1.2,0.9,1.8,1.2,3,1.5c1.2,0.3,3.2,0.4,6.1,0.4c4.8,0,74.2,0,101,0v-15
			h-45.5c-2.8,0-5.5-1.1-7.4-3.1c-2-2-3.1-4.7-3.1-7.4V158.4c0-2.8,1.1-5.5,3.1-7.4c2-2,4.7-3.1,7.4-3.1h145c2.8,0,5.5,1.1,7.4,3.1
			c2,2,3.1,4.7,3.1,7.4v146.5c0,2.8-1.1,5.5-3.1,7.4c-2,2-4.7,3.1-7.4,3.1h-47.5v15h101.5V83.9c0-2.8,1.1-5.5,3.1-7.4
			c2-2,4.7-3.1,7.4-3.1h122.5c2.8,0,5.5,1.1,7.4,3.1c2,2,3.1,4.7,3.1,7.4v120.5c0,2.8-1.1,5.5-3.1,7.4c-2,2-4.7,3.1-7.4,3.1h-82
			v114.5h136.5V139.9c0-2.8,1.1-5.5,3.1-7.4c2-2,4.7-3.1,7.4-3.1h25.5c2.8,0,5.5,1.1,7.4,3.1c2,2,3.1,4.7,3.1,7.4v189.5h43.5V159.9
			c0-2.8,1.1-5.5,3.1-7.4c2-2,4.7-3.1,7.4-3.1h111c2.8,0,5.5,1.1,7.4,3.1c2,2,3.1,4.7,3.1,7.4v23c0,2.8-1.1,5.5-3.1,7.4
			c-2,2-4.7,3.1-7.4,3.1h-75v33h77c2.8,0,5.5,1.1,7.4,3.1c2,2,3.1,4.7,3.1,7.4v23c0,2.8-1.1,5.5-3.1,7.4c-2,2-4.7,3.1-7.4,3.1h-75
			v36h74c2.8,0,5.5,1.1,7.4,3.1c2,2,3.1,4.7,3.1,7.4v12.5c22,0,71,0,74.5,0c3.4,0,6.7,0.4,9.8,1.3c3.1,0.9,6,2.4,8.3,4.2
			c4.7,3.7,7.2,7.6,10.3,11.6c1.1,1.4,4.3,5.5,8.8,11c4.4,5.6,10.1,12.6,16.2,20.2c12.2,15.1,26.1,32.3,35.2,43.6
			c6.1,7.5,10.1,12.5,10.1,12.5c3.6,4.5,3,11.1-1.6,14.8c-1.9,1.6-4.3,2.3-6.6,2.3C1878.1,450.9,1875.1,449.6,1873.1,447.1
			L1873.1,447.1z"/>
		<path id="path240" fill="#FFFFFF" d="M1881.3,456.5c-4.6,0-9.3-2-12.4-5.9l0,0c-0.2-0.2-36.1-44.5-56.8-70.3
			c-7-8.7-12.1-15.1-14-17.6c-2.4-3.2-4.3-5.6-4.9-6.3c-0.1-0.1-0.2-0.2-0.3-0.3c-0.1,0-0.2,0-0.3,0c-0.4,0-0.9-0.1-1.7-0.1h-85
			c-4.2,0-8.3-1.7-11.3-4.7c-3-3-4.7-7.1-4.7-11.3v-7h-68.5c-4.3,0-8.3-1.7-11.3-4.7c-0.1-0.1-0.1-0.1-0.2-0.2V340
			c0,4.2-1.7,8.3-4.7,11.3c-3,3-7.1,4.7-11.3,4.7h-64.5c-4.2,0-8.3-1.7-11.3-4.7c-0.5-0.5-1-1.1-1.4-1.7c-0.4,0.6-0.9,1.1-1.4,1.7
			c-3,3-7.1,4.7-11.3,4.7h-157.5c-4.2,0-8.3-1.7-11.3-4.7c-1.5-1.5-2.7-3.3-3.5-5.3c-0.8,2.3-2.1,4.5-3.9,6.3c-3,3-7.1,4.7-11.3,4.7
			h-122.5c-4.2,0-8.3-1.7-11.3-4.7c-2.1-2.1-3.5-4.6-4.2-7.4c-0.7,2.8-2.1,5.3-4.2,7.4c-3,3-7.1,4.7-11.3,4.7h-111.5
			c-3.1,0-7.2,0-11.8-1c-4.9-1.1-10.1-3.4-14.6-7.3c-0.8-0.7-1.2-1.2-1.5-1.4l0,0l0,0c-0.3-0.3-0.7-0.7-1.1-1.1
			c-0.8-0.8-1.7-1.9-2.9-3.1c-2.3-2.5-5.3-5.9-8.8-9.8c-7-7.9-16.1-18.1-25-28.3c-17.9-20.3-35.3-40.2-35.3-40.3
			c-0.5-0.6-1-1.3-1.5-1.9V340c0,4.3-1.7,8.3-4.7,11.3c-3,3-7.1,4.7-11.3,4.7h-64c-4.3,0-8.3-1.7-11.3-4.7c-0.6-0.6-1.2-1.3-1.7-2
			c-0.5,0.7-1.1,1.4-1.7,2c-3,3-7.1,4.7-11.3,4.7h-64.7c-4.2,0-8.3-1.7-11.3-4.7c-3-3-4.7-7.1-4.7-11.3v-8h-70.5
			c-3.4,0-6.8-1.1-9.5-3.1V340c0,4.3-1.7,8.3-4.7,11.3c-3,3-7.1,4.7-11.3,4.7h-67c-1.2,0-2.7,0-4.5-0.3c-2-0.3-4-0.9-5.9-1.7
			c-3.2-1.5-4.9-2.9-6.9-4.1l-0.1,0l-0.1,0c-1.4-1-2.5-2-2.7-2.3l0,0l0-0.1c-0.5-0.5-0.9-1-1.2-1.4c-0.6-0.8-1.1-1.5-1.7-2.2
			c-1-1.4-2.2-3.1-3.5-5.2c-2.6-4-5.9-9.4-9.7-15.7c-7.6-12.6-17.3-29-26.9-45.3c-17.1-29.1-33.7-58-37-63.7l-0.7,126.1
			c-0.1,8.8-7.1,15.8-15.9,15.9h0c0,0-0.1,0-0.2,0c-0.2,0-0.4,0-0.7,0c-0.6,0-1.5,0-2.6,0c-2.3,0-5.5,0-9.4,0.1
			c-7.8,0-18.2,0.1-28.7,0.2c-21.1,0.1-42.5,0.2-44.4,0.2H396c-7.5,0-13.5-2.5-17.5-5c-0.9-0.6-1.7-1.2-2.5-1.7l-0.5,0.5l-71-85.8
			l-9.7-11.8c-2.5-3-3.7-6.6-3.7-10.2c0-2.9,0.8-5.9,2.4-8.5v-0.1l0,0.1c0.9-1.4,2-2.7,3.3-3.8c3-2.5,6.6-3.7,10.2-3.7
			c4.6,0,9.2,2,12.3,5.8l76.3,92.2c0,0,0.1,0,0.4,0c1.6,0,23.2-0.1,44.2-0.2c9.3-0.1,18.5-0.1,25.9-0.2l1.4-240.2
			c0.1-8.8,7.2-15.9,16-15.9h120.5c4.2,0,8.3,1.7,11.3,4.7c3,3,4.7,7.1,4.7,11.3v121c0,4.3-1.7,8.3-4.7,11.3c-3,3-7.1,4.7-11.3,4.7
			h-64.3c1.9,3.3,4,6.9,6.2,10.7c11.5,19.7,25.9,44.4,37.5,63.7c7.7,12.9,14.3,23.6,17.5,28.4c0,0.1,0.1,0.1,0.1,0.2
			c5.8,0,22.2,0,37,0c4.2,0,8.2,0,11.9,0V158c0-4.3,1.7-8.3,4.7-11.3c3-3,7.1-4.7,11.3-4.7h112.5c4.3,0,8.3,1.7,11.3,4.7
			c3,3,4.7,7.1,4.7,11.3v24c0,4.3-1.7,8.3-4.7,11.3c-3,3-7.1,4.7-11.3,4.7h-71.5v21.5h71c4.3,0,8.3,1.7,11.3,4.7
			c3,3,4.7,7.1,4.7,11.3l0,23.5c0,4.2-1.7,8.3-4.7,11.3c-3,3-7.1,4.7-11.3,4.7h-70.5v25h70.5c4.3,0,8.3,1.7,11.3,4.7
			c3,3,4.7,7.1,4.7,11.3v8h32.5v-200h-78.5c-4.2,0-8.3-1.7-11.3-4.7c-3-3-4.7-7.1-4.7-11.3V82.5c0-4.3,1.7-8.3,4.7-11.3
			c3-3,7.1-4.7,11.3-4.7h216.5c4.3,0,8.3,1.7,11.3,4.7c3,3,4.7,7.1,4.7,11.3V108c0,4.2-1.7,8.3-4.7,11.3c-3,3-7.1,4.7-11.3,4.7h-80
			v200h32V159.6c0-4.3,1.7-8.3,4.7-11.3c3-3,7.1-4.7,11.3-4.7l109,0c4.2,0,8.3,1.7,11.3,4.7c3,3,4.7,7.1,4.7,11.3v94.5
			c0,4.3-1.7,8.3-4.7,11.3c-3,3-7.1,4.7-11.3,4.7h-44.2c2.6,2.9,5.2,5.9,7.9,9c16.3,18.5,34.2,38.8,39.7,44.7
			c0.3,0.3,0.6,0.6,0.8,0.8c0.1,0,0.1,0.1,0.1,0.1l0,0c0,0,0,0,0.1,0c0.1,0,0.2,0.1,0.5,0.1c0.4,0.1,2,0.2,4.3,0.2
			c0.1,0,0.2,0,0.5,0c3.4,0,28,0,53.3,0c15.4,0,31,0,42.1,0v-4h-40c-4.3,0-8.3-1.7-11.3-4.7c-3-3-4.7-7.1-4.7-11.3V158.5
			c0-4.3,1.7-8.3,4.7-11.3c3-3,7.1-4.7,11.3-4.7h145c4.3,0,8.3,1.7,11.3,4.7c3,3,4.7,7.1,4.7,11.3V305c0,4.3-1.7,8.3-4.7,11.3
			c-3,3-7.1,4.7-11.3,4.7h-42v4h90.5V84c0-4.2,1.7-8.3,4.7-11.3c3-3,7.1-4.7,11.3-4.7l122.5,0c4.2,0,8.3,1.7,11.3,4.7
			c3,3,4.7,7.1,4.7,11.3v120.5c0,4.2-1.7,8.3-4.7,11.3c-3,3-7.1,4.7-11.3,4.7h-76.5V324h125.5V140c0-4.3,1.7-8.3,4.7-11.3
			c3-3,7.1-4.7,11.3-4.7h25.5c4.3,0,8.3,1.7,11.3,4.7c3,3,4.7,7.1,4.7,11.3v184h32.5V160c0-4.3,1.7-8.3,4.7-11.3
			c3-3,7.1-4.7,11.3-4.7h111c4.2,0,8.3,1.7,11.3,4.7c3,3,4.7,7.1,4.7,11.3v23c0,4.2-1.7,8.3-4.7,11.3c-3,3-7.1,4.7-11.3,4.7h-69.5
			v22h71.5c4.2,0,8.3,1.7,11.3,4.7c3,3,4.7,7.1,4.7,11.3v23c0,4.2-1.7,8.3-4.7,11.3c-3,3-7.1,4.7-11.3,4.7h-69.5v25h68.5
			c4.2,0,8.3,1.7,11.3,4.7c3,3,4.7,7.1,4.7,11.3v7h69c3.8,0,7.6,0.4,11.3,1.5c3.8,1.1,7.3,2.9,10.2,5.2c5.4,4.3,8.3,8.8,11.3,12.6
			c1,1.3,4.3,5.4,8.7,10.9c4.4,5.5,10.1,12.6,16.2,20.2c12.2,15.1,26.1,32.3,35.2,43.6c6.1,7.5,10,12.4,10.1,12.5c0,0,0,0,0,0
			c0,0,0,0,0,0c2.4,2.9,3.6,6.5,3.6,10.1c0,4.6-2,9.3-5.9,12.4c-2.9,2.4-6.5,3.6-10,3.6h-0.3L1881.3,456.5z M1122.8,289h40
			c4.2,0,8.3,1.7,11.3,4.7c2.1,2.1,3.5,4.6,4.2,7.4c0.7-2.8,2.1-5.3,4.2-7.4c3-3,7.1-4.7,11.3-4.7l42,0V174.5h-113L1122.8,289
			L1122.8,289L1122.8,289z M958.6,257.3C958.5,257.3,958.5,257.3,958.6,257.3L958.6,257.3L958.6,257.3L958.6,257.3
			C958.5,257.3,958.5,257.3,958.6,257.3L958.6,257.3z M948.8,245.4c2.9-4.6,8-7.4,13.5-7.4h63.5v-62.5h-77V245.4L948.8,245.4
			L948.8,245.4z M1332.3,196.8c0.7-1.3,1.6-2.5,2.7-3.6c3-3,7.1-4.7,11.3-4.7l76.5,0V100h-90.5L1332.3,196.8L1332.3,196.8z
			 M499.1,195.9c3-4.3,7.9-6.9,13.2-6.9l76,0v-89h-88.6L499.1,195.9L499.1,195.9z M855.8,98.7c0-0.1,0.1-0.1,0.1-0.2h-0.3
			C855.7,98.6,855.7,98.6,855.8,98.7z"/>
	</g>
	<g id="g242">
		<path id="path244" fill="none" d="M1507.4,102.4l-35.5-35.5c-2-2-3.1-4.7-3.1-7.5c0-2.8,1.2-5.5,3.2-7.5l35.5-34.5
			c4.1-4,10.7-3.9,14.8,0.2l34.5,35c4,4.1,4,10.7,0,14.7l-34.5,35c-2,2-4.6,3.1-7.4,3.1h0C1511.9,105.5,1509.2,104.4,1507.4,102.4
			L1507.4,102.4z M1494.2,59.6l20.5,20.5l19.8-20.1l-19.9-20.2L1494.2,59.6L1494.2,59.6z"/>
		<path id="path246" fill="#FFFFFF" d="M1514.8,111c-4.2,0-8.3-1.7-11.3-4.7l3.9-3.9l-3.9,3.9L1468,70.8c-3-3-4.7-7.1-4.7-11.3
			c0,0,0-0.1,0-0.1c0-0.1,0-0.1,0-0.2c0.1-4.2,1.8-8.2,4.8-11.2l35.5-34.5c3.1-3,7.1-4.5,11.1-4.5c4.1,0,8.3,1.6,11.4,4.8l34.5,35
			c3.1,3.1,4.6,7.2,4.6,11.2c0,4-1.5,8.1-4.6,11.2l-34.5,35C1523.2,109.3,1519.1,111,1514.8,111l0.1,0L1514.8,111z M1514.8,100
			L1514.8,100c1.4,0,2.6-0.5,3.6-1.5l34.5-35c1-1,1.4-2.2,1.4-3.5c0-1.3-0.5-2.5-1.4-3.5l-34.5-35c-1-1-2.3-1.5-3.6-1.5
			c-1.3,0-2.5,0.5-3.5,1.4l-35.5,34.5c-1,0.9-1.5,2.2-1.5,3.6l0,0.1c0,1.3,0.6,2.5,1.5,3.4l12.5,12.5l23,23
			C1512.3,99.5,1513.5,100,1514.8,100L1514.8,100z M1490.3,63.5l-3.9-3.9l28.3-27.5l27.6,28l-27.5,27.9L1490.3,63.5L1490.3,63.5z
			 M1514.7,72.3l12.1-12.3l-12.3-12.5l-12.5,12.1L1514.7,72.3L1514.7,72.3z"/>
	</g>
</g>
</svg>
